<?xml version="1.0" standalone="no"?>
<!DOCTYPE svg PUBLIC "-//W3C//DTD SVG 20010904//EN"
 "http://www.w3.org/TR/2001/REC-SVG-20010904/DTD/svg10.dtd">
<svg version="1.0" xmlns="http://www.w3.org/2000/svg"
 width="600.000000pt" height="600.000000pt" viewBox="0 0 600.000000 600.000000"
 preserveAspectRatio="xMidYMid meet">
<metadata>
Created by potrace 1.11, written by Peter Selinger 2001-2013
</metadata>
<g transform="translate(0.000000,600.000000) scale(0.100000,-0.100000)"
fill="#000000" stroke="none">
<path d="M2790 5734 c-852 -80 -1578 -501 -2052 -1189 -231 -335 -384 -727
-450 -1146 -32 -208 -32 -590 0 -798 129 -828 600 -1530 1314 -1956 308 -184
655 -306 1033 -362 168 -24 562 -24 730 0 787 117 1454 528 1897 1172 236 342
390 742 455 1180 24 168 24 562 0 730 -56 378 -178 725 -362 1033 -427 714
-1133 1188 -1958 1313 -128 20 -494 33 -607 23z m605 -64 c423 -67 788 -210
1127 -442 566 -389 964 -975 1112 -1640 48 -216 60 -336 60 -588 0 -252 -12
-372 -60 -588 -166 -747 -648 -1392 -1324 -1772 -272 -153 -589 -260 -921
-311 -118 -19 -187 -23 -384 -23 -258 0 -375 12 -593 60 -996 222 -1790 998
-2032 1988 -58 236 -74 376 -74 646 0 270 16 410 74 646 237 969 1005 1737
1974 1974 114 28 336 65 441 74 125 10 473 -4 600 -24z"/>
<path d="M2795 5614 c-221 -23 -407 -60 -580 -115 -417 -133 -757 -340 -1065
-649 -411 -410 -655 -897 -747 -1490 -25 -162 -25 -558 0 -720 92 -593 336
-1080 747 -1490 410 -411 897 -655 1490 -747 162 -25 558 -25 720 0 593 92
1080 336 1490 747 411 410 655 897 747 1490 25 162 25 558 0 720 -92 593 -336
1080 -747 1490 -249 250 -520 433 -832 564 -205 86 -419 146 -648 181 -101 15
-485 28 -575 19z m2090 -1546 c251 -389 374 -587 368 -595 -25 -39 -2249
-2892 -2253 -2892 -4 0 -2228 2854 -2253 2892 -6 8 116 206 368 595 l377 582
1508 0 1508 0 377 -582z"/>
<path d="M4125 3448 c-29 -62 -1085 -2782 -1081 -2785 2 -3 2133 2727 2184
2799 13 17 -6 18 -538 18 l-550 0 -15 -32z"/>
</g>
</svg>
